<svg xmlns="http://www.w3.org/2000/svg" width="77.985" height="77.985" viewBox="0 0 77.985 77.985">
  <g id="Group_1663" data-name="Group 1663" transform="translate(-406 -167)">
    <g id="Group_855" data-name="Group 855" transform="translate(406 167)">
      <ellipse id="Ellipse_143" data-name="Ellipse 143" cx="38.993" cy="38.993" rx="38.993" ry="38.993" transform="translate(0 0)" fill="#fff8dd"/>
    </g>
    <g id="Stockholm-icons-_-Layout-_-Layout-left-panel-2" data-name="Stockholm-icons-/-Layout-/-Layout-left-panel-2" transform="translate(425 187.6)">
      <rect id="bound" width="39" height="39" transform="translate(0 0.4)" fill="none"/>
      <ellipse id="Ellipse_47" data-name="Ellipse 47" cx="12.5" cy="13" rx="12.5" ry="13" transform="translate(8 1.4)" fill="#fb0"/>
      <path id="Rectangle_66" data-name="Rectangle 66" d="M0,0H13a0,0,0,0,1,0,0V6a2,2,0,0,1-2,2H2A2,2,0,0,1,0,6V0A0,0,0,0,1,0,0Z" transform="translate(14 28.4)" fill="#f80"/>
    </g>
  </g>
</svg>
