<svg xmlns="http://www.w3.org/2000/svg" width="48" height="48" viewBox="0 0 48 48">
  <g id="Group_1671" data-name="Group 1671" transform="translate(-400 -535)">
    <g id="Stockholm-icons-_-Code-_-Info-circle" data-name="Stockholm-icons-/-Code-/-Info-circle" transform="translate(400 535)">
      <circle id="Oval-5" cx="24" cy="24" r="24" fill="#58cd50" opacity="0.27"/>
      <rect id="bound" width="48" height="48" transform="translate(0 0)" fill="none"/>
      <circle id="Oval-5-2" data-name="Oval-5" cx="19" cy="19" r="19" transform="translate(5 5)" fill="#58cd50"/>
    </g>
    <path id="Stroke_3" data-name="Stroke 3" d="M13.708.487a1.746,1.746,0,0,1,2.419,0,1.628,1.628,0,0,1,.166,2.164l-.166.186L7.236,11.476a1.749,1.749,0,0,1-2.228.161l-.192-.161L.5,7.281A1.629,1.629,0,0,1,.5,4.93a1.749,1.749,0,0,1,2.228-.16l.192.161,3.1,3.02Z" transform="translate(416 553.519)" fill="#fff"/>
  </g>
</svg>
