<svg xmlns="http://www.w3.org/2000/svg" width="361.907" height="198.015" viewBox="0 0 361.907 198.015">
  <g id="Group_162" data-name="Group 162" transform="translate(-941.677 -192.596)">
    <path id="Path_324" data-name="Path 324" d="M338.517,296.7A51.952,51.952,0,0,1,334,305.4a37.422,37.422,0,0,1-2.739,3.767.193.193,0,0,1-.03.033H25l.041-.033c.276-.215,1.893-1.524,4.409-3.767,1.8-1.606,4.07-3.7,6.613-6.208,20.8-20.459,60.757-68.886,27.48-113.249-30.935-41.241,2.372-48.724,24.344-49.6a62.772,62.772,0,0,1,24.76,4.048,219.988,219.988,0,0,0,52.874,12.482c.794.088,1.593.176,2.4.256a231.49,231.49,0,0,0,38.516.7h0c.377-.022.758-.05,1.141-.077a228.871,228.871,0,0,0,37.672-5.828c.8-.2,1.593-.38,2.381-.565,41.23-9.539,79.238,22.972,69.735,59.713-3.513,13.59-2.62,28.075,9.093,39.794C345.64,266,343.317,284.834,338.517,296.7Z" transform="translate(954.126 80.802)" fill="#e8e8e8" opacity="0.63"/>
    <g id="undraw_youtube_tutorial_re_69qc" transform="translate(1018.5 192.596)">
      <path id="Path_285" data-name="Path 285" d="M311.174,665.246c-3.525,2.427-7.129,4.932-9.57,8.448s-3.506,8.315-1.545,12.119l-.051.237a9.174,9.174,0,0,0,8.859-1.561c3.1-2.6,4.076-6.895,4.867-10.868l2.341-11.751Z" transform="translate(-296.159 -489.519)" fill="#f0f0f0"/>
      <path id="Path_286" data-name="Path 286" d="M324.527,704.312a20.092,20.092,0,0,0-6.777,2.381c-2.016,1.317-3.587,3.594-3.368,5.993l-.077.113a5.162,5.162,0,0,0,4.949,1.06c2.169-.7,3.583-2.733,4.836-4.638l3.706-5.632Z" transform="translate(-306.117 -516.735)" fill="#f0f0f0"/>
      <path id="Path_287" data-name="Path 287" d="M531.076,195.142H330.309a.291.291,0,1,1,0-.583H531.076a.291.291,0,0,1,0,.583Z" transform="translate(-316.368 -184.652)" fill="#cacaca"/>
      <circle id="Ellipse_35" data-name="Ellipse 35" cx="3.205" cy="3.205" r="3.205" transform="translate(17.295 0)" fill="#3f3d56"/>
      <circle id="Ellipse_36" data-name="Ellipse 36" cx="3.205" cy="3.205" r="3.205" transform="translate(28.367 0)" fill="#3f3d56"/>
      <circle id="Ellipse_37" data-name="Ellipse 37" cx="3.205" cy="3.205" r="3.205" transform="translate(39.44 0)" fill="#3f3d56"/>
      <path id="Path_288" data-name="Path 288" d="M873.468,169.512H865.6a.583.583,0,0,1,0-1.166h7.867a.583.583,0,0,1,0,1.166Z" transform="translate(-665.393 -167.551)" fill="#3f3d56"/>
      <path id="Path_289" data-name="Path 289" d="M873.468,175.8H865.6a.583.583,0,0,1,0-1.166h7.867a.583.583,0,0,1,0,1.166Z" transform="translate(-665.393 -171.653)" fill="#3f3d56"/>
      <path id="Path_290" data-name="Path 290" d="M873.468,182.086H865.6a.583.583,0,0,1,0-1.166h7.867a.583.583,0,0,1,0,1.166Z" transform="translate(-665.393 -175.754)" fill="#3f3d56"/>
      <rect id="Rectangle_49" data-name="Rectangle 49" width="133.165" height="79.841" transform="translate(17.214 22.985)" fill="#d6d6d6"/>
      <rect id="Rectangle_50" data-name="Rectangle 50" width="41.96" height="25.158" transform="translate(166.697 22.985)" fill="#d6d6d6"/>
      <path id="Path_291" data-name="Path 291" d="M817.859,333.388H792.893a1.176,1.176,0,0,1,0-2.352h24.966a1.176,1.176,0,1,1,0,2.352Z" transform="translate(-617.573 -273.688)" fill="#e4e4e4"/>
      <path id="Path_292" data-name="Path 292" d="M821.388,321.808H804.473a1.176,1.176,0,1,1,0-2.352h16.915a1.176,1.176,0,0,1,0,2.352Z" transform="translate(-625.128 -266.133)" fill="#e4e4e4"/>
      <rect id="Rectangle_51" data-name="Rectangle 51" width="41.96" height="25.158" transform="translate(166.697 68.734)" fill="#d6d6d6"/>
      <path id="Path_293" data-name="Path 293" d="M817.859,464.993H792.893a1.176,1.176,0,0,1,0-2.352h24.966a1.176,1.176,0,1,1,0,2.352Z" transform="translate(-617.573 -359.545)" fill="#e4e4e4"/>
      <path id="Path_294" data-name="Path 294" d="M821.388,453.413H804.473a1.176,1.176,0,1,1,0-2.352h16.915a1.176,1.176,0,0,1,0,2.352Z" transform="translate(-625.128 -351.99)" fill="#e4e4e4"/>
      <circle id="Ellipse_38" data-name="Ellipse 38" cx="9.937" cy="9.937" r="9.937" transform="translate(76.174 46.062)" fill="#9e616a"/>
      <path id="Path_295" data-name="Path 295" d="M249.122,231.433H224.2l1.4-31.508.172-.181,2.474-2.611h7.868l2.92,2.826.23.225,6.213,5.953Z" transform="translate(-146.268 -128.607)" fill="#6c63ff"/>
      <path id="Path_296" data-name="Path 296" d="M498.834,402.151H479.9c-.125-12.058-.224-21.155-.224-21.155l.967-.589.006,0,10.621-6.448,2.229-3.622.012.128.656,7.634A131.285,131.285,0,0,1,498.834,402.151Z" transform="translate(-414 -299.325)" fill="#2f2e41"/>
      <path id="Path_297" data-name="Path 297" d="M574.235,402.151H557.384a41.946,41.946,0,0,1-1.166-11.219c.828-13.249-1.081-20.6-.254-20.6l.437.344,5.2,4.106,6.845,2.509,4.75,1.743.828.3v.4C574.025,381.742,574.045,391.052,574.235,402.151Z" transform="translate(-463.633 -299.325)" fill="#2f2e41"/>
      <path id="Path_298" data-name="Path 298" d="M506.634,303.851s.844-1.483.648-6.436,7.346-2.152,13.649-2.624,4.968,8.27,4.968,8.27.455-.52,1.428-4.739-1.237-8.424-1.237-8.424c-.651-4.434-4.159-3.013-4.159-3.013a1.84,1.84,0,0,1,1.365,2.064c-1.43-2.507-4.939-1.087-4.939-1.087-4.679-2.936-9.421.93-9.421.93-5.653,1.283-2.338,5.778-2.338,5.778C500.914,297.445,506.634,303.851,506.634,303.851Z" transform="translate(-429.924 -244.743)" fill="#2f2e41"/>
      <path id="Path_299" data-name="Path 299" d="M464.534,421.051c.484-9.671.854-17.259.708-17.845-.408-1.629,5.347-3.835,5.522-3.9l0,0h0l1.1.592.8,21.155Z" transform="translate(-404.124 -318.225)" fill="#2f2e41"/>
      <path id="Path_300" data-name="Path 300" d="M599.679,415.106h-8.552l-2.448-24.177,1.008-.737.239.055a19.905,19.905,0,0,1,4.75,1.742,2.878,2.878,0,0,1,.828.7.847.847,0,0,1,.2.6C595.626,393.977,597.491,403.657,599.679,415.106Z" transform="translate(-485.114 -312.28)" fill="#2f2e41"/>
      <path id="Path_301" data-name="Path 301" d="M489.753,489.945H399.422a1.311,1.311,0,1,0,0,2.622h90.331a1.311,1.311,0,0,0,0-2.622Z" transform="translate(-360.791 -377.357)" fill="#cacaca"/>
      <path id="Path_302" data-name="Path 302" d="M465.276,489.945v2.622H399.422a1.311,1.311,0,1,1,0-2.622Z" transform="translate(-360.791 -377.357)" fill="#3f3d56"/>
      <circle id="Ellipse_39" data-name="Ellipse 39" cx="2.623" cy="2.623" r="2.623" transform="translate(101.863 111.276)" fill="#3f3d56"/>
      <path id="Path_303" data-name="Path 303" d="M521.652,536.266a5.414,5.414,0,1,1,5.414-5.414A5.414,5.414,0,0,1,521.652,536.266Zm0-10.411a5,5,0,1,0,5,5,5,5,0,0,0-5-5Z" transform="translate(-437.855 -400.513)" fill="#6c63ff"/>
      <path id="Path_304" data-name="Path 304" d="M529.364,538.457a.208.208,0,0,1-.208-.208v-5.413a.208.208,0,0,1,.416,0v5.414A.208.208,0,0,1,529.364,538.457Z" transform="translate(-446.282 -405.202)" fill="#6c63ff"/>
      <path id="Path_305" data-name="Path 305" d="M533.478,538.457a.208.208,0,0,1-.208-.208v-5.413a.208.208,0,0,1,.416,0v5.414A.208.208,0,0,1,533.478,538.457Z" transform="translate(-448.966 -405.202)" fill="#6c63ff"/>
      <path id="Path_306" data-name="Path 306" d="M460.483,530.853a5.414,5.414,0,1,1,5.414,5.414A5.413,5.413,0,0,1,460.483,530.853Zm.416,0a5,5,0,1,0,5-5A5,5,0,0,0,460.9,530.853Z" transform="translate(-401.481 -400.513)" fill="#3f3d56"/>
      <path id="Path_307" data-name="Path 307" d="M477.1,539.415a.173.173,0,0,0,.087-.323l-2.6-1.5,2.6-1.5a.173.173,0,1,0-.173-.3l-2.857,1.65a.173.173,0,0,0,0,.3l2.857,1.649A.172.172,0,0,0,477.1,539.415Z" transform="translate(-410.343 -407.252)" fill="#3f3d56"/>
      <path id="Path_308" data-name="Path 308" d="M471.437,538.887a.173.173,0,0,0,.173-.173v-4.5a.173.173,0,0,0-.346,0v4.5A.173.173,0,0,0,471.437,538.887Z" transform="translate(-408.515 -406.124)" fill="#3f3d56"/>
      <path id="Path_309" data-name="Path 309" d="M577.408,536.266a5.414,5.414,0,1,1,5.414-5.414A5.414,5.414,0,0,1,577.408,536.266Zm0-10.411a5,5,0,1,0,5,5,5,5,0,0,0-5-5Z" transform="translate(-474.23 -400.513)" fill="#3f3d56"/>
      <path id="Path_310" data-name="Path 310" d="M580.517,539.415a.173.173,0,0,1-.087-.323l2.6-1.5-2.6-1.5a.173.173,0,1,1,.173-.3l2.857,1.649a.173.173,0,0,1,0,.3l-2.857,1.649A.173.173,0,0,1,580.517,539.415Z" transform="translate(-479.676 -407.252)" fill="#3f3d56"/>
      <path id="Path_311" data-name="Path 311" d="M591.537,538.887a.173.173,0,0,1-.173-.173v-4.5a.173.173,0,0,1,.346,0v4.5a.173.173,0,0,1-.173.173Z" transform="translate(-486.866 -406.124)" fill="#3f3d56"/>
      <path id="Path_312" data-name="Path 312" d="M377.7,527.02a2.77,2.77,0,0,1,.378-4.231l-2.664-9.478,4.874,1.556,1.782,8.762a2.786,2.786,0,0,1-4.371,3.391Z" transform="translate(-345.987 -392.601)" fill="#ffb6b6"/>
      <path id="Path_313" data-name="Path 313" d="M370.053,414.929l-1.01-1.051s-3.121,2.144-2.461,8.79c.488,4.909-1.054,6.991-.881,21.259L370.053,457l5.034-2.639-3.642-16.123Z" transform="translate(-339.638 -327.733)" fill="#6c63ff"/>
      <path id="Path_314" data-name="Path 314" d="M98.358,529.8h3.609l1.717-13.922H98.357Z" transform="translate(-64.167 -336.554)" fill="#ffb6b6"/>
      <path id="Path_315" data-name="Path 315" d="M386.461,718.6h7.108a4.53,4.53,0,0,1,4.53,4.529v.147H386.461Z" transform="translate(-353.19 -526.528)" fill="#2f2e41"/>
      <path id="Path_316" data-name="Path 316" d="M128.639,526.321l3.583.439,3.4-13.609-5.287-.648Z" transform="translate(-83.922 -334.349)" fill="#ffb6b6"/>
      <path id="Path_317" data-name="Path 317" d="M416.1,714.625l7.055.865h0a4.53,4.53,0,0,1,3.945,5.047l-.018.146-11.551-1.416Z" transform="translate(-372.158 -523.935)" fill="#2f2e41"/>
      <path id="Path_318" data-name="Path 318" d="M375.376,516.654s-6.953,4.752-3.477,17.613l4.7,49.924,5.585-.04,2.366-24.634,1.608-17.343,5.372,17.934-4.418,22.006,6.521.686,7.813-25.591-3.768-36.435Z" transform="translate(-343.056 -394.782)" fill="#2f2e41"/>
      <path id="Path_319" data-name="Path 319" d="M394.96,403.938l-3.535-2.843-9.375-.386-6.78,4.578s-.7,16.3,3.888,30.823l-2.406,6.066,24.052,3.017Z" transform="translate(-345.864 -319.141)" fill="#6c63ff"/>
      <circle id="Ellipse_40" data-name="Ellipse 40" cx="8.042" cy="8.042" r="8.042" transform="translate(33.475 61.995)" fill="#ffb6b6"/>
      <path id="Path_320" data-name="Path 320" d="M387.4,338.288H385.61a8.344,8.344,0,0,0-10.727,8l-2.783,9.185a1.773,1.773,0,0,0,1.7,2.287h1.359a4,4,0,0,0,.7-2.785,8.218,8.218,0,0,1,.527,1.917,3.376,3.376,0,0,1-.018.869H388.18a4.411,4.411,0,0,0-1.069-3.18,15.9,15.9,0,0,1,2.463,3.18h.222a1.773,1.773,0,0,0,1.773-1.772v-9h4.519A8.69,8.69,0,0,0,387.4,338.288Z" transform="translate(-343.772 -278.192)" fill="#2f2e41"/>
      <path id="Path_321" data-name="Path 321" d="M437.7,525.02a2.77,2.77,0,0,1,.378-4.231l-2.664-9.478,4.874,1.556,1.782,8.762a2.786,2.786,0,0,1-4.371,3.391Z" transform="translate(-385.13 -391.296)" fill="#ffb6b6"/>
      <path id="Path_322" data-name="Path 322" d="M421.661,411.728l3.049-1.8s4.8-.845,5.307,5.543,1.249,22.972,1.249,22.972l1.5,13.98-5.55,1.183-6.379-19.117Z" transform="translate(-375.614 -325.132)" fill="#6c63ff"/>
    </g>
    <path id="Path_253" data-name="Path 253" d="M550.488,738.12H189.744a.5.5,0,1,1,0-1H550.488a.5.5,0,1,1,0,1Z" transform="translate(752.515 -347.51)" fill="#3f3d56"/>
  </g>
</svg>
