<svg xmlns="http://www.w3.org/2000/svg" xmlns:xlink="http://www.w3.org/1999/xlink" width="504" height="230" viewBox="0 0 504 230">
  <defs>
    <clipPath id="clip-path">
      <rect id="Rectangle_12" data-name="Rectangle 12" width="496" height="230" rx="11" transform="translate(1387 225)" fill="#fff8dd"/>
    </clipPath>
    <clipPath id="clip-path-2">
      <rect id="Rectangle_15" data-name="Rectangle 15" width="496" height="210" rx="11" transform="translate(1387 225)" fill="#fff"/>
    </clipPath>
  </defs>
  <g id="Group_1646" data-name="Group 1646" transform="translate(-1366 -225)">
    <g id="Mask_Group_2" data-name="Mask Group 2" transform="translate(-21)" clip-path="url(#clip-path)">
      <path id="Path_8" data-name="Path 8" d="M1505.135,48.144s-51.592-41.556-109.365,0-66.54,60.732-102.986,140.082-169.64,31.67-140.247,115.8,321.177,92.787,321.177,92.787,89.193-101.356,89.193-111.492S1570,161.663,1570,155.581s-7.095-69.936-7.095-69.936Z" transform="translate(384 165)" fill="#6c63ff"/>
    </g>
    <g id="Mask_Group_1" data-name="Mask Group 1" transform="translate(-13 19)" clip-path="url(#clip-path-2)">
      <g id="undraw_lightbulb_moment_re_ulyo" transform="translate(1553.538 240)">
        <path id="Path_2" data-name="Path 2" d="M874.241,756.489a16.385,16.385,0,0,1-4.434,4c-.365.225-.741.437-1.122.633H859.7c.107-.209.212-.421.313-.633a29.513,29.513,0,0,0-6.473-34.6,26.26,26.26,0,0,1,13.729,9.293,20.1,20.1,0,0,1,3.338,7.278,29.644,29.644,0,0,0-2.5-15.318,25.4,25.4,0,0,1,9.148,13.6A18.85,18.85,0,0,1,874.241,756.489Z" transform="translate(-657.789 -558.889)" fill="#f0f0f0"/>
        <path id="Path_2533" data-name="Path 2533" d="M739.306,836.526H670.4v-.563h69.01Z" transform="translate(-563.773 -629.02)" fill="#3f3d56"/>
        <g id="Group_9" data-name="Group 9" transform="translate(12.15 10.06) rotate(-19)">
          <path id="Path_3" data-name="Path 3" d="M377.515,223.529c0,8.1-2.831,15.02-8.218,20.168-3.823,3.655-9.711,8.777-9.711,14.194v4.481H341.658v-4.481c0-5.473-5.911-10.606-9.711-14.194a27.674,27.674,0,0,1-8.218-20.168v-.166a26.892,26.892,0,1,1,53.785.166Z" transform="translate(-312.804 -168.325)" fill="#fb0"/>
          <path id="Path_2546" data-name="Path 2546" d="M357.222,260.945a.629.629,0,0,1-.629-.629v-4.482c0-5.268,5.2-10.187,8.99-13.778.315-.3.621-.587.915-.869,5.248-5.017,8.022-11.834,8.022-19.713a25.982,25.982,0,0,0-26.262-26.262h-.074A26.217,26.217,0,0,0,322,221.326v.147a27.03,27.03,0,0,0,8.019,19.712c.258.244.526.495.8.753,3.843,3.6,9.106,8.525,9.106,13.9v4.482a.629.629,0,1,1-1.258,0v-4.482c0-4.826-5.032-9.538-8.708-12.98l-.805-.756a28.29,28.29,0,0,1-8.414-20.626v-.151a27.478,27.478,0,0,1,27.444-27.369h.078a27.376,27.376,0,0,1,27.518,27.233q0,.144,0,.287c0,8.231-2.909,15.362-8.411,20.623-.3.282-.6.574-.92.873-3.628,3.434-8.6,8.137-8.6,12.864v4.482a.629.629,0,0,1-.629.629Z" transform="translate(-310.44 -166.269)" fill="#3f3d56"/>
          <path id="Path_2547" data-name="Path 2547" d="M431.482,544.033H419.529a1.048,1.048,0,1,1,0-2.1h11.952a1.048,1.048,0,0,1,0,2.1Z" transform="translate(-387.687 -441.285)" fill="#3f3d56"/>
          <path id="Path_4" data-name="Path 4" d="M437.762,578.554h-2.572a4.916,4.916,0,0,1-2.536-.7.586.586,0,0,1-.266-.674.605.605,0,0,1,.587-.449h7a.605.605,0,0,1,.587.449.586.586,0,0,1-.266.674A4.916,4.916,0,0,1,437.762,578.554Z" transform="translate(-398.658 -468.782)" fill="#3f3d56"/>
          <path id="Path_5" data-name="Path 5" d="M434.931,562.755H422.908l-.037-.08a.991.991,0,0,1,.189-.851,1.018,1.018,0,0,1,.8-.388h10.182a1.018,1.018,0,0,1,.8.388.985.985,0,0,1,.191.84l-.019.081Z" transform="translate(-391.135 -456.695)" fill="#3f3d56"/>
          <path id="Path_2548" data-name="Path 2548" d="M281.5,169.817a1.044,1.044,0,0,1-.689-.259l-9-7.859a1.048,1.048,0,1,1,1.379-1.58l9,7.859a1.048,1.048,0,0,1-.69,1.838Z" transform="translate(-271.482 -139.326)" fill="#fb0"/>
          <path id="Path_2549" data-name="Path 2549" d="M573.505,169.814a1.048,1.048,0,0,1-.69-1.838l9-7.86a1.048,1.048,0,1,1,1.379,1.58l-9,7.859A1.044,1.044,0,0,1,573.505,169.814Z" transform="translate(-509.376 -139.323)" fill="#fb0"/>
          <path id="Path_2550" data-name="Path 2550" d="M423.206,526.287H405.277a1.048,1.048,0,0,1,0-2.1h17.928a1.048,1.048,0,1,1,0,2.1Z" transform="translate(-376.424 -427.26)" fill="#3f3d56"/>
          <path id="Path_6" data-name="Path 6" d="M427.807,398.968l-3.728,22.409H421.95l3.787-22.753a1.049,1.049,0,1,1,2.07.344Z" transform="translate(-390.429 -327.33)" fill="#e6e6e6"/>
          <path id="Path_7" data-name="Path 7" d="M461.922,421.377h-2.128l-3.728-22.409a1.049,1.049,0,0,1,2.07-.344Z" transform="translate(-417.38 -327.33)" fill="#e6e6e6"/>
          <path id="Path_2551" data-name="Path 2551" d="M419.485,396.048A1.048,1.048,0,0,1,420.533,395h11.531a1.048,1.048,0,0,1,0,2.1H420.533A1.048,1.048,0,0,1,419.485,396.048Z" transform="translate(-388.481 -325.16)" fill="#e6e6e6"/>
          <path id="Path_2553" data-name="Path 2553" d="M448.029,81.956a1.048,1.048,0,0,1-1.048-1.048V62.979a1.048,1.048,0,1,1,2.1,0V80.908A1.048,1.048,0,0,1,448.029,81.956Z" transform="translate(-410.211 -61.931)" fill="#fb0"/>
        </g>
        <path id="Path_2559" data-name="Path 2559" d="M848.513,791.755h-4l-1.9-14.963h5.9Z" transform="translate(-646.272 -582.044)" fill="#feb8b8"/>
        <path id="Path_2560" data-name="Path 2560" d="M837.194,825.1H824.3v-.158a4.946,4.946,0,0,1,5.019-4.868h7.878Z" transform="translate(-633.933 -611.633)" fill="#2f2e41"/>
        <path id="Path_2561" data-name="Path 2561" d="M759.584,789.253l-3.864-1,2.147-14.932,5.7,1.479Z" transform="translate(-587.729 -579.67)" fill="#feb8b8"/>
        <path id="Path_2562" data-name="Path 2562" d="M741.785,820.85l-12.459-3.231.042-.153a5.038,5.038,0,0,1,6.146-3.446h0l7.61,1.973Z" transform="translate(-569.947 -607.378)" fill="#2f2e41"/>
        <path id="Path_2563" data-name="Path 2563" d="M787.228,559.068l3.35,3.775-4.333,76.714H776.99l-4.665-59.029-14.469,60.612-9.622-2.289,8.749-76.986Z" transform="translate(-582.685 -433.213)" fill="#2f2e41"/>
        <path id="Path_2564" data-name="Path 2564" d="M774.065,392.855l9.215-4.484,14.172.242,12.2,6.052-6.939,33.609,3,17.523h0a76.137,76.137,0,0,1-35.345.282l-.093-.022s6.889-23.705,3.956-30.94Z" transform="translate(-597.531 -316.529)" fill="#e6e6e6"/>
        <path id="Path_2565" data-name="Path 2565" d="M820.51,324.146a10.129,10.129,0,1,0,0,.075Z" transform="translate(-617.316 -265.731)" fill="#feb8b8"/>
        <path id="Path_2567" data-name="Path 2567" d="M777.458,469.2a3.693,3.693,0,0,0,2.288,2.12,3.841,3.841,0,0,0,3.145-.34l18.712,9.593.606-4.421-18.182-10.4a3.833,3.833,0,0,0-4.862-1.106,3.6,3.6,0,0,0-1.706,4.552Z" transform="translate(-602.196 -368.369)" fill="#feb8b8"/>
        <path id="Path_2568" data-name="Path 2568" d="M800.484,470.084a3.759,3.759,0,0,1-2.71,1.584,3.811,3.811,0,0,1-2.992-1l-20.424,5.39.178-5.613,20.316-5.117a3.848,3.848,0,0,1,4.994-.048,3.569,3.569,0,0,1,.637,4.8Z" transform="translate(-600.287 -368.49)" fill="#feb8b8"/>
        <path id="Path_2569" data-name="Path 2569" d="M842.813,408.507l3.982-.242s4.662,5.966,2.076,12.44c0,0,.448,23.257-9.878,22.3s-13.589-.955-13.589-.955l3.1-8.385,6.934-2.076s-2.137-9.143,1.908-12.947Z" transform="translate(-634.679 -330.128)" fill="#e6e6e6"/>
        <path id="Path_2570" data-name="Path 2570" d="M762,402.34l-.563-2.8s-8.3-.19-9.941,12.009c0,0-7.464,18.255-.148,20.606s15.363,0,15.363,0L766.1,424.1l-8.049-1.593s4.158-5.217,1.894-9.743Z" transform="translate(-582.617 -324.164)" fill="#e6e6e6"/>
        <path id="Path_2387" data-name="Path 2387" d="M812.67,322.936a13.248,13.248,0,0,0-2.429-.421,6.032,6.032,0,0,1-4.864-6.237,3.326,3.326,0,0,0,.019-1.118,2.18,2.18,0,0,0-1.989-1.347,18.474,18.474,0,0,1-2.572-.189,3.769,3.769,0,0,1-2.571-2.722,6,6,0,0,1,.413-3.785l.4.808a3.106,3.106,0,0,0,.818-1.536,2.047,2.047,0,0,1,1.686,1.035c.516.223.453-.92.967-1.146a.992.992,0,0,1,.685.086c1.133.369,2.335-.184,3.457-.581a13.569,13.569,0,0,1,6.082-.674,7.474,7.474,0,0,1,3.8,1.4,8.443,8.443,0,0,1,2.009,2.618,15.874,15.874,0,0,1,2.271,7.692A10.938,10.938,0,0,1,818.844,323c-.669.945-2.832,4.222-4.269,3.861C812.77,326.4,814.832,323.758,812.67,322.936Z" transform="translate(-616.301 -259.55)" fill="#2f2e41"/>
      </g>
    </g>
    <g id="Ellipse_1" data-name="Ellipse 1" transform="translate(1777 239)" fill="none" stroke="#4e46d9" stroke-width="5">
      <circle cx="15" cy="15" r="15" stroke="none"/>
      <circle cx="15" cy="15" r="12.5" fill="none"/>
    </g>
    <circle id="Ellipse_2" data-name="Ellipse 2" cx="7.5" cy="7.5" r="7.5" transform="translate(1665 397)" fill="#4e46d9"/>
    <circle id="Ellipse_3" data-name="Ellipse 3" cx="5.5" cy="5.5" r="5.5" transform="translate(1790 330)" fill="#fff"/>
  </g>
</svg>
