<svg id="Iconly_Bulk_Plus" data-name="Iconly/Bulk/Plus" xmlns="http://www.w3.org/2000/svg" width="72.904" height="72.904" viewBox="0 0 72.904 72.904">
  <g id="Plus">
    <path id="Path_34200" d="M53.463,0H19.441C7.031,0,0,7.031,0,19.441V53.463C0,65.84,7,72.9,19.441,72.9H53.463C65.873,72.9,72.9,65.84,72.9,53.463V19.441C72.9,7.031,65.873,0,53.463,0Z" fill="#d9dbe2" opacity="0.4"/>
    <path id="Path_34201" d="M26.684,17.163H17.313v9.29a2.732,2.732,0,0,1-5.464,0v-9.29H2.477a2.735,2.735,0,0,1,0-5.446h9.342V2.456a2.764,2.764,0,0,1,5.494,0v9.261h9.372a2.735,2.735,0,0,1,0,5.446Z" transform="translate(21.871 21.871)" fill="#a1a5b7"/>
  </g>
</svg>
