<svg xmlns="http://www.w3.org/2000/svg" width="186.561" height="208.51" viewBox="0 0 186.561 208.51">
  <g id="undraw_revenue_re_2bmg" transform="translate(0 0)">
    <path id="Path_255" data-name="Path 255" d="M528.126,181.078q0,.888-.021,1.773c-.006.386-.018.771-.033,1.157,0,.111-.006.218-.012.329q-.014.318-.027.628-.1,2.068-.3,4.105c-.006.066-.012.132-.018.194-.015.135-.027.269-.045.4-.042.4-.087.807-.138,1.205-.033.269-.066.535-.1.8-.018.129-.036.257-.051.383s-.039.278-.06.416c-.009.06-.018.12-.027.182-.03.2-.06.41-.093.613-.039.266-.081.529-.126.8s-.087.526-.135.789-.093.526-.14.789-.1.529-.15.792q-.386,1.956-.861,3.878-.188.749-.386,1.5-.327,1.211-.691,2.41c-.069.221-.137.443-.206.661-.078.251-.158.5-.239.751s-.161.5-.245.748-.167.5-.254.745-.17.493-.26.739-.176.493-.266.739-.182.49-.275.733q-.278.736-.571,1.456c-.1.242-.194.484-.3.724q-.6,1.444-1.25,2.856c-.1.209-.191.419-.29.625-.066.138-.129.272-.194.41-.111.227-.218.451-.329.676s-.224.458-.341.688q-.345.682-.7,1.36c-.236.452-.478.9-.727,1.349s-.5.891-.753,1.331c-.129.221-.257.443-.386.661q-.776,1.314-1.6,2.6t-1.7,2.527c-.29.416-.586.831-.885,1.241-.12.164-.239.326-.359.487-.146.2-.3.4-.451.6a79.48,79.48,0,0,1-114.512,13.21q-1.31-1.094-2.572-2.243a79.948,79.948,0,0,1-13.967-16.739c-.481-.774-.954-1.558-1.408-2.347a79.549,79.549,0,0,1,135.5-83.253c.132.2.263.4.395.607a79.064,79.064,0,0,1,12.358,37.263Q528.128,178.222,528.126,181.078Z" transform="translate(-348.09 -101.541)" fill="#e8e8e8" opacity="0.7"/>
    <path id="Path_256" data-name="Path 256" d="M600.079,222.588H489.909a.3.3,0,0,1,0-.607H599.684C599.816,222.181,599.947,222.385,600.079,222.588Z" transform="translate(-432.601 -185.968)" fill="#cacaca"/>
    <ellipse id="Ellipse_20" data-name="Ellipse 20" cx="3.267" cy="3.34" rx="3.267" ry="3.34" transform="translate(60.725 25.692)" fill="#3f3d56"/>
    <ellipse id="Ellipse_21" data-name="Ellipse 21" cx="3.267" cy="3.34" rx="3.267" ry="3.34" transform="translate(72.01 25.692)" fill="#3f3d56"/>
    <ellipse id="Ellipse_22" data-name="Ellipse 22" cx="3.267" cy="3.34" rx="3.267" ry="3.34" transform="translate(83.295 25.692)" fill="#3f3d56"/>
    <path id="Path_257" data-name="Path 257" d="M633,348.631a20.552,20.552,0,0,0-7.7,6.321,27.6,27.6,0,0,1-8.226,7.326c-.135.075-.266.147-.4.218a21.985,21.985,0,0,1-8.226,2.521,24.984,24.984,0,0,1-2.619.126c-.365,0-.73-.012-1.091-.03-.858-.042-1.707-.126-2.542-.245a37.729,37.729,0,0,1-12.331-4.255,44.881,44.881,0,0,0-14.116-4.94q-1.328-.22-2.649-.344c-.365-.036-.727-.063-1.089-.087q-1.332-.09-2.661-.084c-.454,0-.906.012-1.36.03a42.943,42.943,0,0,0-26.528,10.08l-.356.3c-.111.1-.221.194-.332.293a44.611,44.611,0,0,0-3.989,4.028c-1.425,1.633-2.348,3.516-4.435,8.2s-.439,4.062-3.912,10.522-9.41,4.648-9.492,12.28v.15c0,.161,0,.326,0,.487h98.712c.12-.161.239-.323.356-.487.3-.41.595-.825.885-1.241q.875-1.247,1.7-2.527t1.6-2.6c.129-.218.257-.44.386-.661.254-.44.505-.885.754-1.331s.49-.9.727-1.349.473-.905.7-1.36c.117-.23.23-.461.341-.688s.218-.449.329-.676c.066-.138.128-.272.194-.41.1-.206.194-.416.29-.625q.655-1.413,1.25-2.856c.1-.239.2-.481.3-.724q.292-.722.571-1.456c.093-.242.182-.487.275-.733s.179-.49.266-.739.176-.493.26-.739.171-.5.254-.745.165-.5.245-.748.161-.5.239-.751c.069-.218.138-.439.206-.661q.363-1.2.691-2.41.2-.745.386-1.495.476-1.92.861-3.878c.051-.263.1-.526.149-.792s.1-.526.141-.789.093-.526.135-.789.087-.529.125-.8c.033-.2.063-.41.093-.613.009-.063.018-.123.027-.182.021-.141.039-.278.057-.416s.036-.257.054-.383c.036-.269.069-.535.1-.8.051-.4.1-.8.137-1.205h0c.012-.135.027-.269.042-.4.006-.063.012-.129.018-.194q.206-2.036.3-4.105.014-.309.027-.628c.006-.111.009-.218.012-.329.015-.386.027-.771.033-1.157q.023-.884.021-1.773Q633.2,351.433,633,348.631Z" transform="translate(-453.162 -274.748)" fill="#6c63ff"/>
    <rect id="Rectangle_29" data-name="Rectangle 29" width="1.091" height="31.976" transform="translate(86.188 93.936)" fill="#3f3d56"/>
    <rect id="Rectangle_30" data-name="Rectangle 30" width="1.091" height="46.91" transform="translate(118.849 79.002)" fill="#3f3d56"/>
    <rect id="Rectangle_31" data-name="Rectangle 31" width="1.091" height="37.091" transform="translate(151.576 88.82)" fill="#3f3d56"/>
    <circle id="Ellipse_23" data-name="Ellipse 23" cx="3.337" cy="3.337" r="3.337" transform="translate(116.124 76.417)" fill="#3f3d56"/>
    <circle id="Ellipse_24" data-name="Ellipse 24" cx="3.337" cy="3.337" r="3.337" transform="translate(148.852 85.689)" fill="#3f3d56"/>
    <circle id="Ellipse_25" data-name="Ellipse 25" cx="3.337" cy="3.337" r="3.337" transform="translate(82.798 87.907)" fill="#3f3d56"/>
    <path id="Path_258" data-name="Path 258" d="M617.759,523.911c-.12.164-.239.326-.359.487-.146.2-.3.4-.452.6H518.583v-1.091Z" transform="translate(-452.909 -397.618)" fill="#3f3d56"/>
    <path id="Path_259" data-name="Path 259" d="M127.114,656.541h3.161l1.5-12.192h-4.665Z" transform="translate(-89.105 -451.682)" fill="#ffb8b8"/>
    <path id="Path_260" data-name="Path 260" d="M432.393,781.065a3.929,3.929,0,0,0-1.286-.864,4.009,4.009,0,0,0-1.519-.3l-1.863-1.411-.1.039-3.373,1.372h-.891V784h10.193v-.129A3.935,3.935,0,0,0,432.393,781.065Z" transform="translate(-386.161 -576.076)" fill="#2f2e41"/>
    <path id="Path_261" data-name="Path 261" d="M176.227,656.541h3.161l1.5-12.192h-4.665Z" transform="translate(-123.532 -451.682)" fill="#ffb8b8"/>
    <path id="Path_262" data-name="Path 262" d="M481.506,781.065a3.907,3.907,0,0,0-1.289-.864,3.987,3.987,0,0,0-1.519-.3l-1.86-1.411-.1.042-3.373,1.37h-.891l0,4.1h10.19v-.129A3.945,3.945,0,0,0,481.506,781.065Z" transform="translate(-420.587 -576.076)" fill="#2f2e41"/>
    <path id="Path_263" data-name="Path 263" d="M425.4,563.522l-24.835.648L401,576.264s-.432,3.239.432,4.1,1.3.864.864,2.376,1.85,3.981,1.573,4.258a11.172,11.172,0,0,0-.925,1.789l2.16,12.31s1.512,21.38,1.944,21.812.864,0,.432,1.08-.864.648-.432,1.08a15.884,15.884,0,0,1,1.08,1.3h5.221s.394-2.16.394-2.376.432-1.512.432-1.728-.382-.6-.382-.6a7.113,7.113,0,0,1-.266-1.346c0-.432-1.3-17.061-1.3-17.061l2.592-21.6,6.263,21.164s0,18.573.432,19,.432.216.216,1.08-1.08.648-.432,1.3.864-.432.648.648l-.216,1.08,6.479.093s.864-1.82.432-2.468-.406-.471.121-1.531.743-1.276.527-1.492-.216-1.365-.216-1.365l-1.08-20.663s-.216-21.812-.216-22.46a2.156,2.156,0,0,1,.179-.972V574.2l-.827-3.116Z" transform="translate(-370.181 -425.385)" fill="#2f2e41"/>
    <path id="Path_264" data-name="Path 264" d="M542.836,398.354a2.412,2.412,0,0,1-3.471,1.274l-10.781,9.032L528,404.246l10.544-8.072a2.425,2.425,0,0,1,4.294,2.181Z" transform="translate(-459.509 -307.318)" fill="#ffb8b8"/>
    <circle id="Ellipse_26" data-name="Ellipse 26" cx="6.695" cy="6.695" r="6.695" transform="translate(29.096 81.374)" fill="#ffb8b8"/>
    <path id="Path_265" data-name="Path 265" d="M405.754,368.522c-.623-1.486-3.294-2.368-7.521-2.235s-4.967,5.173-4.967,5.173c-2.328,2.17,1.431,8.945,2.083,8.011s1.747-.051,1.747-.051l-1.043-5.869a4.223,4.223,0,0,0,3.323.215l-1.717-.918,4.269.531-1.761-1.354.128-.043a6.258,6.258,0,0,0,2.231.506,2.439,2.439,0,0,0,2.228-1.242,1.835,1.835,0,0,0,.159-.71,3.715,3.715,0,0,1,1.888,1.852A22.848,22.848,0,0,0,405.754,368.522Z" transform="translate(-364.536 -287.116)" fill="#2f2e41"/>
    <path id="Path_266" data-name="Path 266" d="M398.532,415.886a26.686,26.686,0,0,0-4.784.6c-4.294.724-1.722,4.8-1.722,4.8s.194-.1-.332,0a11.878,11.878,0,0,0-2.32,1.651l-3.208,2.85a10.615,10.615,0,0,0-3.753,9.715l7.051,7.1-3.089,14.236s1.313,2.114.634,3.062,5.98.676,5.98.676c4.6,2.048,20.787.317,20.787.317-.224-.586-2.392-5.128-2.392-5.128.942-1.627.045-3.977.045-3.977s-.936-11.117-1.534-12.654,1.531-9.864,2.93-9.775,10.439-4.521,10.439-4.521-.227-.362,2.757-1.582a14.623,14.623,0,0,0,4.632-2.921l1.226-2.449c-.589.227-2.578-3.522-2.578-3.522l-.867.331-.5-.145s-3.92,1.115-4.721,1.929-1.07.586-1.794.768-.813.691-1.041.634-.631.631-.948.541-1,.272-1.447.362-3.66,1.447-3.66,1.447c-1.985-1-7.368-.6-7.368-.6s-1.761-1.038-2.26,0a1.7,1.7,0,0,1-1.534,1l-2.147-.918C400.886,420.161,398.544,415.414,398.532,415.886Z" transform="translate(-357.382 -320.823)" fill="#3f3d56"/>
    <path id="Path_267" data-name="Path 267" d="M331.888,720.808l-.3-6.708a21.665,21.665,0,0,0-10.105-2.558c4.853,3.968,4.247,11.617,7.537,16.953a13.032,13.032,0,0,0,9.556,6.022L342.64,737a21.837,21.837,0,0,0-4.6-17.7,21.094,21.094,0,0,0-3.877-3.6C333.188,718.271,331.888,720.808,331.888,720.808Z" transform="translate(-314.745 -529.145)" fill="#f2f2f2"/>
    <path id="Path_268" data-name="Path 268" d="M298.947,796.559a.479.479,0,0,0,.48.48h114.3a.48.48,0,1,0,0-.96h-114.3a.479.479,0,0,0-.48.48Z" transform="translate(-298.947 -588.529)" fill="#3f3d56"/>
    <rect id="Rectangle_32" data-name="Rectangle 32" width="1.794" height="0.598" transform="translate(86.562 90.519)" fill="#3f3d56"/>
    <path id="Path_269" data-name="Path 269" d="M606.553,404.271v.6h3.624v-.6Zm7.248,0v.6h3.621v-.6Zm7.245,0v.6h3.624v-.6Zm7.245,0v.6h3.624v-.6Zm7.248,0v.6h3.621v-.6Zm7.245,0v.6h3.624v-.6Zm7.245,0v.6h3.624v-.6Zm7.248,0v.6H660.9v-.6Zm7.245,0v.6h3.624v-.6Zm7.245,0v.6h3.624v-.6Zm7.245,0v.6h3.624v-.6Zm7.248,0v.6h3.621v-.6Zm7.245,0v.6h.269c.009-.063.018-.123.027-.182.021-.138.039-.275.06-.416Z" transform="translate(-514.575 -313.752)" fill="#3f3d56"/>
    <rect id="Rectangle_33" data-name="Rectangle 33" width="1.794" height="0.598" transform="translate(117.659 78.559)" fill="#3f3d56"/>
    <path id="Path_270" data-name="Path 270" d="M710.553,364.271v.6h3.624v-.6Zm7.248,0v.6h3.621v-.6Zm7.245,0v.6h3.624v-.6Zm7.245,0v.6h3.624v-.6Zm7.248,0v.6h3.621v-.6Zm7.245,0v.6h3.624v-.6Zm7.245,0v.6h3.624v-.6Zm7.248,0v.6H764.9v-.6Z" transform="translate(-587.478 -285.712)" fill="#3f3d56"/>
    <rect id="Rectangle_34" data-name="Rectangle 34" width="1.794" height="0.598" transform="translate(150.849 87.529)" fill="#3f3d56"/>
    <path id="Path_271" data-name="Path 271" d="M821.553,394.271v.6h3.624v-.6Zm7.248,0v.6h3.621v-.6Zm7.245,0v.6h3.624v-.6Zm7.245,0v.6h1.576c.012-.135.027-.269.042-.4.006-.063.012-.129.018-.194Z" transform="translate(-665.288 -306.742)" fill="#3f3d56"/>
    <path id="Path_272" data-name="Path 272" d="M452.053,554.252V534.993a1.472,1.472,0,0,1,1.47-1.47h14.545a1.472,1.472,0,0,1,1.47,1.47v19.259a1.472,1.472,0,0,1-1.47,1.47H453.523A1.472,1.472,0,0,1,452.053,554.252Z" transform="translate(-406.272 -404.356)" fill="#e6e6e6"/>
    <path id="Path_273" data-name="Path 273" d="M455.785,551.14V538.759a1.378,1.378,0,0,1,1.377-1.377h12.5a1.379,1.379,0,0,1,1.377,1.377V555.9a1.379,1.379,0,0,1-1.377,1.377h-7.744A6.14,6.14,0,0,1,455.785,551.14Z" transform="translate(-408.889 -407.061)" fill="#fff"/>
    <path id="Path_274" data-name="Path 274" d="M462.553,550.387a1.347,1.347,0,0,1,1.346-1.346h8.671a1.346,1.346,0,0,1,0,2.691H463.9a1.347,1.347,0,0,1-1.346-1.346Z" transform="translate(-413.633 -415.234)" fill="#e6e6e6"/>
    <path id="Path_275" data-name="Path 275" d="M462.553,564.387a1.347,1.347,0,0,1,1.346-1.346h8.671a1.346,1.346,0,0,1,0,2.691H463.9a1.347,1.347,0,0,1-1.346-1.346Z" transform="translate(-413.633 -425.048)" fill="#e6e6e6"/>
    <path id="Path_276" data-name="Path 276" d="M462.553,578.387a1.347,1.347,0,0,1,1.346-1.346h8.671a1.346,1.346,0,1,1,0,2.691H463.9a1.347,1.347,0,0,1-1.346-1.345Z" transform="translate(-413.633 -434.862)" fill="#e6e6e6"/>
    <path id="Path_277" data-name="Path 277" d="M418.813,553.731a2.237,2.237,0,0,1-2.251-2.589l-12.418-6.8,3.634-1.966,11.508,6.911a2.25,2.25,0,0,1-.473,4.443Z" transform="translate(-372.689 -410.562)" fill="#ffb8b8"/>
    <path id="Path_278" data-name="Path 278" d="M390.108,495.408l-4.4-.782-1.577-1.311-1.06-.54-3.655-2.565-.011-.032-5.807-17.166a5.623,5.623,0,0,1,4.161-6.5h0a5.616,5.616,0,0,1,6.928,4.742l1.869,14.712,3.1,3.2,1.355.262.312,1.46,1.183,1.83Z" transform="translate(-351.204 -357.265)" fill="#3f3d56"/>
    <path id="Path_279" data-name="Path 279" d="M298.947,796.559a.711.711,0,0,0,.078.34.232.232,0,0,0,.19.14h64.022c.148,0,.269-.215.269-.48s-.12-.48-.269-.48H299.216a.232.232,0,0,0-.19.14A.71.71,0,0,0,298.947,796.559Z" transform="translate(-176.946 -588.529)" fill="#3f3d56"/>
  </g>
</svg>
