<svg xmlns="http://www.w3.org/2000/svg" width="77.985" height="77.985" viewBox="0 0 77.985 77.985">
  <g id="Group_1664" data-name="Group 1664" transform="translate(-913.519 -166.917)">
    <g id="Group_856" data-name="Group 856" transform="translate(913.519 166.917)">
      <ellipse id="Ellipse_142" data-name="Ellipse 142" cx="38.993" cy="38.993" rx="38.993" ry="38.993" transform="translate(0 0)" fill="#fff8dd"/>
    </g>
    <g id="Group_1528" data-name="Group 1528" transform="translate(632 18)">
      <g id="Wallet" transform="translate(304 173)">
        <path id="Fill_1" data-name="Fill 1" d="M23.953,30H9.048a9.24,9.24,0,0,1-6.657-2.355A8.937,8.937,0,0,1,0,21.09V8.9A8.917,8.917,0,0,1,2.391,2.348,9.252,9.252,0,0,1,9.048,0h14.9A9.25,9.25,0,0,1,30.6,2.348,8.918,8.918,0,0,1,32.994,8.9v.061H26.007a5.87,5.87,0,0,0-5.891,5.8,5.73,5.73,0,0,0,1.722,4.111,5.9,5.9,0,0,0,4.169,1.707H33v.51a8.939,8.939,0,0,1-2.39,6.555A9.237,9.237,0,0,1,23.953,30ZM7.82,6.457A1.258,1.258,0,0,0,6.564,7.7a1.225,1.225,0,0,0,.366.88,1.263,1.263,0,0,0,.89.368h9.324a1.262,1.262,0,0,0,.89-.368A1.227,1.227,0,0,0,18.4,7.7a1.258,1.258,0,0,0-1.265-1.239Z" fill="#fb0"/>
        <path id="Fill_4" data-name="Fill 4" d="M.062,3.988A3.332,3.332,0,0,0,3.349,6.656H8.7A1.2,1.2,0,0,0,9.885,5.435V1.222A1.206,1.206,0,0,0,8.7,0H3.223A3.287,3.287,0,0,0,0,3.345a3.413,3.413,0,0,0,.062.643" transform="translate(23.065 11.482)" fill="#f80"/>
        <ellipse id="Oval" cx="1.647" cy="1.664" rx="1.647" ry="1.664" transform="translate(24.712 13.147)" fill="#fff"/>
      </g>
    </g>
  </g>
</svg>
